# xmcd
#
# Track frame offsets: 
#        150
#        14087
#        23765
#        32745
#        44690
#        54942
#        67997
#        83390
#        92780
#        104962
#        115142
#        126602
#        143827
#        152005
#
# Disc length: 2195 seconds
#
# Revision: 0
# Processed by: cddbd v1.5PL3 Copyright (c) Steve Scherf et al.
# Submitted via: ExactAudioCopy v0.95a5
#
DISCID=bf08910e
DTITLE=Billy Vaughn - String of Pearls: Billy Vaughn's Greatest Hits
DYEAR=1990
DGENRE=Jazz
TTITLE0=A STRING OF PEARLS
TTITLE1=CORAZON DE MELON
TTITLE2=ESTRELLITA
TTITLE3=MOON RIVER
TTITLE4=I'LL SEE YOU IN MY DREAMS
TTITLE5=BLUE TANGO
TTITLE6=BESAME MUCHO
TTITLE7=FASCINATION
TTITLE8=QUIEN SERA
TTITLE9=LA CUMPARSITA
TTITLE10=PATRICIA
TTITLE11=IN THE MOOD
TTITLE12=GOODNIGHT
TTITLE13=AULD LANG SYNE
EXTD=
EXTT0=
EXTT1=
EXTT2=
EXTT3=
EXTT4=
EXTT5=
EXTT6=
EXTT7=
EXTT8=
EXTT9=
EXTT10=
EXTT11=
EXTT12=
EXTT13=
PLAYORDER=
